<svg width="188" height="188" viewBox="0 0 188 188" fill="none" xmlns="http://www.w3.org/2000/svg">
<path d="M48.25 80L44.6538 70.5225H44.5952C44.6147 70.7227 44.6318 70.9668 44.6465 71.2549C44.6611 71.543 44.6733 71.8579 44.6831 72.1997C44.6929 72.5366 44.6978 72.8809 44.6978 73.2324V80H43.5405V69.292H45.3862L48.7773 78.1982H48.8286L52.271 69.292H54.1021V80H52.8716V73.1445C52.8716 72.8271 52.8765 72.5098 52.8862 72.1924C52.896 71.8701 52.9082 71.5674 52.9229 71.2842C52.9375 70.9961 52.9521 70.7471 52.9668 70.5371H52.9082L49.2681 80H48.25ZM69.3188 74.6313C69.3188 75.4565 69.2139 76.2085 69.0039 76.8872C68.7939 77.561 68.4814 78.1421 68.0664 78.6304C67.6562 79.1138 67.146 79.4873 66.5356 79.751C65.9253 80.0146 65.2173 80.1465 64.4116 80.1465C63.5815 80.1465 62.8564 80.0146 62.2363 79.751C61.6211 79.4873 61.1084 79.1113 60.6982 78.623C60.293 78.1348 59.9878 77.5513 59.7827 76.8726C59.5825 76.1938 59.4824 75.4419 59.4824 74.6167C59.4824 73.5229 59.6631 72.5635 60.0244 71.7383C60.3857 70.9131 60.9326 70.271 61.665 69.812C62.4023 69.353 63.3252 69.1235 64.4336 69.1235C65.4932 69.1235 66.3843 69.3506 67.1069 69.8047C67.8345 70.2588 68.3838 70.8984 68.7549 71.7236C69.1309 72.5439 69.3188 73.5132 69.3188 74.6313ZM60.7935 74.6313C60.7935 75.5396 60.9229 76.3257 61.1816 76.9897C61.4404 77.6538 61.8359 78.1665 62.3682 78.5278C62.9053 78.8892 63.5864 79.0698 64.4116 79.0698C65.2417 79.0698 65.9204 78.8892 66.4478 78.5278C66.98 78.1665 67.373 77.6538 67.627 76.9897C67.8809 76.3257 68.0078 75.5396 68.0078 74.6313C68.0078 73.2495 67.7173 72.1704 67.1362 71.394C66.5601 70.6128 65.6592 70.2222 64.4336 70.2222C63.6035 70.2222 62.9199 70.4004 62.3828 70.7568C61.8457 71.1133 61.4453 71.6211 61.1816 72.2803C60.9229 72.9346 60.7935 73.7183 60.7935 74.6313ZM80.749 77.1509C80.749 77.7856 80.5903 78.3276 80.2729 78.7769C79.9604 79.2212 79.521 79.5605 78.9546 79.7949C78.3882 80.0293 77.7217 80.1465 76.9551 80.1465C76.5498 80.1465 76.1665 80.127 75.8052 80.0879C75.4438 80.0488 75.1118 79.9927 74.8091 79.9194C74.5063 79.8462 74.2402 79.7559 74.0107 79.6484V78.4546C74.377 78.606 74.8237 78.7476 75.3511 78.8794C75.8784 79.0063 76.4302 79.0698 77.0063 79.0698C77.5435 79.0698 77.9976 78.999 78.3687 78.8574C78.7397 78.7109 79.0205 78.5034 79.2109 78.2349C79.4062 77.9614 79.5039 77.6343 79.5039 77.2534C79.5039 76.8872 79.4233 76.582 79.2622 76.3379C79.1011 76.0889 78.8325 75.8643 78.4565 75.6641C78.0854 75.459 77.5776 75.2417 76.9331 75.0122C76.479 74.8511 76.0786 74.6753 75.7319 74.4849C75.3853 74.2896 75.0947 74.0698 74.8604 73.8257C74.626 73.5815 74.4478 73.2983 74.3257 72.9761C74.2085 72.6538 74.1499 72.2852 74.1499 71.8701C74.1499 71.2988 74.2939 70.8105 74.582 70.4053C74.875 69.9951 75.2778 69.6826 75.7905 69.4678C76.3081 69.248 76.9014 69.1382 77.5703 69.1382C78.1416 69.1382 78.6689 69.1919 79.1523 69.2993C79.6406 69.4067 80.0874 69.5508 80.4927 69.7314L80.1045 70.8008C79.7188 70.6396 79.3086 70.5054 78.874 70.3979C78.4443 70.2905 78 70.2368 77.541 70.2368C77.082 70.2368 76.6938 70.3052 76.3765 70.4419C76.064 70.5737 75.8247 70.7617 75.6587 71.0059C75.4927 71.25 75.4097 71.5405 75.4097 71.8774C75.4097 72.2534 75.4878 72.5659 75.644 72.8149C75.8052 73.064 76.0591 73.2861 76.4058 73.4814C76.7573 73.6719 77.2212 73.8721 77.7974 74.082C78.4272 74.3115 78.9619 74.5557 79.4014 74.8145C79.8408 75.0684 80.1753 75.3809 80.4048 75.752C80.6343 76.1182 80.749 76.5845 80.749 77.1509ZM89.2275 80H87.9751V70.3906H84.606V69.292H92.582V70.3906H89.2275V80ZM110.059 80H104.097V69.292H110.059V70.3906H105.342V73.855H109.788V74.939H105.342V78.9014H110.059V80ZM120.01 70.2368C119.419 70.2368 118.887 70.3394 118.413 70.5444C117.944 70.7446 117.544 71.0376 117.212 71.4233C116.885 71.8042 116.633 72.2656 116.458 72.8076C116.282 73.3496 116.194 73.96 116.194 74.6387C116.194 75.5371 116.333 76.3184 116.611 76.9824C116.895 77.6416 117.314 78.1519 117.871 78.5132C118.433 78.8745 119.133 79.0552 119.973 79.0552C120.452 79.0552 120.901 79.0161 121.321 78.938C121.746 78.855 122.158 78.7524 122.559 78.6304V79.7144C122.168 79.8608 121.758 79.9683 121.328 80.0366C120.898 80.1099 120.388 80.1465 119.797 80.1465C118.708 80.1465 117.798 79.9219 117.065 79.4727C116.338 79.0186 115.791 78.3789 115.425 77.5537C115.063 76.7285 114.883 75.7544 114.883 74.6313C114.883 73.8208 114.995 73.0811 115.22 72.4121C115.449 71.7383 115.781 71.1572 116.216 70.6689C116.655 70.1807 117.192 69.8047 117.827 69.541C118.467 69.2725 119.199 69.1382 120.024 69.1382C120.566 69.1382 121.089 69.1919 121.592 69.2993C122.095 69.4067 122.549 69.5605 122.954 69.7607L122.456 70.8154C122.114 70.6592 121.738 70.5249 121.328 70.4126C120.923 70.2954 120.483 70.2368 120.01 70.2368ZM137.167 74.6313C137.167 75.4565 137.062 76.2085 136.853 76.8872C136.643 77.561 136.33 78.1421 135.915 78.6304C135.505 79.1138 134.995 79.4873 134.384 79.751C133.774 80.0146 133.066 80.1465 132.26 80.1465C131.43 80.1465 130.705 80.0146 130.085 79.751C129.47 79.4873 128.957 79.1113 128.547 78.623C128.142 78.1348 127.836 77.5513 127.631 76.8726C127.431 76.1938 127.331 75.4419 127.331 74.6167C127.331 73.5229 127.512 72.5635 127.873 71.7383C128.234 70.9131 128.781 70.271 129.514 69.812C130.251 69.353 131.174 69.1235 132.282 69.1235C133.342 69.1235 134.233 69.3506 134.956 69.8047C135.683 70.2588 136.232 70.8984 136.604 71.7236C136.979 72.5439 137.167 73.5132 137.167 74.6313ZM128.642 74.6313C128.642 75.5396 128.771 76.3257 129.03 76.9897C129.289 77.6538 129.685 78.1665 130.217 78.5278C130.754 78.8892 131.435 79.0698 132.26 79.0698C133.09 79.0698 133.769 78.8892 134.296 78.5278C134.829 78.1665 135.222 77.6538 135.476 76.9897C135.729 76.3257 135.856 75.5396 135.856 74.6313C135.856 73.2495 135.566 72.1704 134.985 71.394C134.409 70.6128 133.508 70.2222 132.282 70.2222C131.452 70.2222 130.769 70.4004 130.231 70.7568C129.694 71.1133 129.294 71.6211 129.03 72.2803C128.771 72.9346 128.642 73.7183 128.642 74.6313ZM141.691 76.5137V75.4297H145.324V76.5137H141.691ZM50.7402 100H49.4951V89.292H55.457V90.3906H50.7402V94.3164H55.1714V95.4077H50.7402V100ZM63.1372 89.292C64.0161 89.292 64.7412 89.4019 65.3125 89.6216C65.8887 89.8364 66.3184 90.166 66.6016 90.6104C66.8848 91.0547 67.0264 91.6211 67.0264 92.3096C67.0264 92.876 66.9238 93.3496 66.7188 93.7305C66.5137 94.1064 66.2451 94.4116 65.9131 94.646C65.5811 94.8804 65.2271 95.061 64.8511 95.188L67.7881 100H66.3379L63.7158 95.5322H61.4893V100H60.2441V89.292H63.1372ZM63.064 90.3687H61.4893V94.4775H63.1885C64.0625 94.4775 64.7046 94.2993 65.1147 93.9429C65.5298 93.5864 65.7373 93.0615 65.7373 92.3682C65.7373 91.6406 65.5176 91.1255 65.0781 90.8228C64.6436 90.52 63.9722 90.3687 63.064 90.3687ZM72.502 100V89.292H73.7471V100H72.502ZM85.6533 100H79.6914V89.292H85.6533V90.3906H80.9365V93.855H85.3823V94.939H80.9365V98.9014H85.6533V100ZM99.3979 100H97.9624L92.125 91.0059H92.0664C92.0811 91.2451 92.0981 91.5186 92.1177 91.8262C92.1372 92.1289 92.1519 92.4536 92.1616 92.8003C92.1763 93.1421 92.1836 93.4912 92.1836 93.8477V100H91.0264V89.292H92.4546L98.27 98.2568H98.3213C98.3115 98.0859 98.2993 97.8442 98.2847 97.5317C98.27 97.2144 98.2554 96.875 98.2407 96.5137C98.231 96.1475 98.2261 95.8081 98.2261 95.4956V89.292H99.3979V100ZM113.824 94.5435C113.824 95.7495 113.604 96.7578 113.165 97.5684C112.725 98.374 112.088 98.9819 111.253 99.3921C110.423 99.7974 109.415 100 108.228 100H105.32V89.292H108.55C109.639 89.292 110.577 89.4922 111.363 89.8926C112.149 90.2881 112.754 90.8765 113.179 91.6577C113.609 92.4341 113.824 93.396 113.824 94.5435ZM112.513 94.5874C112.513 93.6255 112.352 92.832 112.029 92.207C111.712 91.582 111.243 91.1182 110.623 90.8154C110.008 90.5078 109.253 90.354 108.36 90.354H106.565V98.9307H108.082C109.556 98.9307 110.662 98.5669 111.399 97.8394C112.142 97.1118 112.513 96.0278 112.513 94.5874ZM119.204 100V89.292H120.449V98.8867H125.203V100H119.204ZM132.773 94.6606L135.622 89.292H136.962L133.396 95.8472V100H132.15V95.9058L128.576 89.292H129.938L132.773 94.6606ZM38.4443 109.292C39.3232 109.292 40.0483 109.402 40.6196 109.622C41.1958 109.836 41.6255 110.166 41.9087 110.61C42.1919 111.055 42.3335 111.621 42.3335 112.31C42.3335 112.876 42.231 113.35 42.0259 113.73C41.8208 114.106 41.5522 114.412 41.2202 114.646C40.8882 114.88 40.5342 115.061 40.1582 115.188L43.0952 120H41.645L39.0229 115.532H36.7964V120H35.5513V109.292H38.4443ZM38.3711 110.369H36.7964V114.478H38.4956C39.3696 114.478 40.0117 114.299 40.4219 113.943C40.8369 113.586 41.0444 113.062 41.0444 112.368C41.0444 111.641 40.8247 111.125 40.3853 110.823C39.9507 110.52 39.2793 110.369 38.3711 110.369ZM53.771 120H47.8091V109.292H53.771V110.391H49.0542V113.855H53.5V114.939H49.0542V118.901H53.771V120ZM65.1865 117.151C65.1865 117.786 65.0278 118.328 64.7104 118.777C64.3979 119.221 63.9585 119.561 63.3921 119.795C62.8257 120.029 62.1592 120.146 61.3926 120.146C60.9873 120.146 60.604 120.127 60.2427 120.088C59.8813 120.049 59.5493 119.993 59.2466 119.919C58.9438 119.846 58.6777 119.756 58.4482 119.648V118.455C58.8145 118.606 59.2612 118.748 59.7886 118.879C60.3159 119.006 60.8677 119.07 61.4438 119.07C61.981 119.07 62.4351 118.999 62.8062 118.857C63.1772 118.711 63.458 118.503 63.6484 118.235C63.8438 117.961 63.9414 117.634 63.9414 117.253C63.9414 116.887 63.8608 116.582 63.6997 116.338C63.5386 116.089 63.27 115.864 62.894 115.664C62.5229 115.459 62.0151 115.242 61.3706 115.012C60.9165 114.851 60.5161 114.675 60.1694 114.485C59.8228 114.29 59.5322 114.07 59.2979 113.826C59.0635 113.582 58.8853 113.298 58.7632 112.976C58.646 112.654 58.5874 112.285 58.5874 111.87C58.5874 111.299 58.7314 110.811 59.0195 110.405C59.3125 109.995 59.7153 109.683 60.228 109.468C60.7456 109.248 61.3389 109.138 62.0078 109.138C62.5791 109.138 63.1064 109.192 63.5898 109.299C64.0781 109.407 64.5249 109.551 64.9302 109.731L64.542 110.801C64.1562 110.64 63.7461 110.505 63.3115 110.398C62.8818 110.291 62.4375 110.237 61.9785 110.237C61.5195 110.237 61.1313 110.305 60.814 110.442C60.5015 110.574 60.2622 110.762 60.0962 111.006C59.9302 111.25 59.8472 111.541 59.8472 111.877C59.8472 112.253 59.9253 112.566 60.0815 112.815C60.2427 113.064 60.4966 113.286 60.8433 113.481C61.1948 113.672 61.6587 113.872 62.2349 114.082C62.8647 114.312 63.3994 114.556 63.8389 114.814C64.2783 115.068 64.6128 115.381 64.8423 115.752C65.0718 116.118 65.1865 116.584 65.1865 117.151ZM73.665 120H72.4126V110.391H69.0435V109.292H77.0195V110.391H73.665V120ZM88.3545 120L87.0361 116.602H82.7441L81.4331 120H80.1733L84.3628 109.248H85.4834L89.6436 120H88.3545ZM86.6626 115.496L85.4102 112.119C85.3809 112.031 85.332 111.887 85.2637 111.687C85.2002 111.487 85.1343 111.279 85.0659 111.064C84.9976 110.85 84.9414 110.676 84.8975 110.544C84.8486 110.745 84.7949 110.945 84.7363 111.145C84.6826 111.34 84.6289 111.523 84.5752 111.694C84.5215 111.86 84.4751 112.002 84.436 112.119L83.1616 115.496H86.6626ZM102.231 109.292V116.221C102.231 116.978 102.077 117.651 101.77 118.242C101.467 118.833 101.008 119.299 100.393 119.641C99.7773 119.978 99.0059 120.146 98.0781 120.146C96.7549 120.146 95.7466 119.788 95.0532 119.07C94.3647 118.352 94.0205 117.393 94.0205 116.191V109.292H95.2729V116.228C95.2729 117.136 95.5122 117.837 95.9907 118.33C96.4741 118.823 97.1943 119.07 98.1514 119.07C98.8057 119.07 99.3403 118.953 99.7554 118.718C100.175 118.479 100.485 118.147 100.686 117.722C100.891 117.292 100.993 116.797 100.993 116.235V109.292H102.231ZM110.966 109.292C111.845 109.292 112.57 109.402 113.141 109.622C113.717 109.836 114.147 110.166 114.43 110.61C114.713 111.055 114.855 111.621 114.855 112.31C114.855 112.876 114.752 113.35 114.547 113.73C114.342 114.106 114.074 114.412 113.742 114.646C113.41 114.88 113.056 115.061 112.68 115.188L115.617 120H114.167L111.544 115.532H109.318V120H108.073V109.292H110.966ZM110.893 110.369H109.318V114.478H111.017C111.891 114.478 112.533 114.299 112.943 113.943C113.358 113.586 113.566 113.062 113.566 112.368C113.566 111.641 113.346 111.125 112.907 110.823C112.472 110.52 111.801 110.369 110.893 110.369ZM127.047 120L125.729 116.602H121.437L120.125 120H118.866L123.055 109.248H124.176L128.336 120H127.047ZM125.355 115.496L124.103 112.119C124.073 112.031 124.024 111.887 123.956 111.687C123.893 111.487 123.827 111.279 123.758 111.064C123.69 110.85 123.634 110.676 123.59 110.544C123.541 110.745 123.487 110.945 123.429 111.145C123.375 111.34 123.321 111.523 123.268 111.694C123.214 111.86 123.167 112.002 123.128 112.119L121.854 115.496H125.355ZM141.194 120H139.759L133.921 111.006H133.863C133.877 111.245 133.895 111.519 133.914 111.826C133.934 112.129 133.948 112.454 133.958 112.8C133.973 113.142 133.98 113.491 133.98 113.848V120H132.823V109.292H134.251L140.066 118.257H140.118C140.108 118.086 140.096 117.844 140.081 117.532C140.066 117.214 140.052 116.875 140.037 116.514C140.027 116.147 140.022 115.808 140.022 115.496V109.292H141.194V120ZM150.405 120H149.153V110.391H145.784V109.292H153.76V110.391H150.405V120Z" fill="white"/>
<path d="M175.416 129.297C175.035 128.53 174.272 127.762 173.509 127.379C172.365 126.228 171.221 125.844 171.221 125.844C171.221 125.844 170.077 125.46 168.552 125.46C167.789 125.46 167.027 125.46 165.883 125.46C165.12 125.46 163.976 125.844 163.213 126.228C162.451 126.612 161.688 126.995 161.307 127.379C160.163 128.146 159.4 128.914 158.637 129.681C158.256 130.065 158.256 130.448 157.875 130.448C157.875 130.832 157.493 130.832 157.493 130.832C157.493 130.832 158.637 131.216 160.163 131.599C160.925 131.599 161.688 131.983 162.832 131.983C163.595 131.983 164.739 131.983 165.883 131.599C166.645 131.216 167.408 130.832 168.171 130.448C169.315 129.681 170.077 128.53 170.84 127.762C171.603 126.995 171.603 126.228 171.603 126.228C171.603 126.228 171.221 126.995 171.221 128.146C170.84 129.297 170.84 130.448 170.84 131.983C170.84 132.75 170.84 133.518 171.221 134.669C171.603 135.82 171.984 136.587 172.365 137.354C172.747 138.122 173.51 138.889 173.891 139.656C175.035 140.807 175.798 141.575 175.798 141.575C175.798 141.575 175.798 141.575 176.179 141.191C176.179 140.807 176.56 140.424 176.942 140.04C177.323 138.889 177.704 137.354 177.704 135.82C177.704 135.052 177.704 133.901 177.323 133.134C176.56 130.832 176.179 130.064 175.416 129.297Z" fill="#A6382D" fill-opacity="0.5"/>
<path d="M181.517 118.938C181.136 117.787 180.373 117.02 179.61 116.252C178.848 115.485 178.085 115.101 177.704 114.717C176.178 113.95 175.416 113.566 175.416 113.566C175.416 113.566 174.272 113.566 172.746 113.566C171.984 113.566 171.221 113.566 170.077 113.95C169.314 114.334 168.17 114.334 167.408 115.101C166.645 115.485 165.882 116.252 165.12 116.636C164.357 117.403 163.976 117.787 163.594 118.554C163.213 119.322 162.831 119.705 162.831 120.089C162.45 120.473 162.45 120.856 162.45 120.856C162.45 120.856 163.594 121.24 165.12 121.24C166.645 121.24 168.552 121.24 170.458 120.473C171.221 120.089 171.984 119.322 172.746 118.554C173.509 117.787 173.89 117.02 174.272 116.636C175.034 115.485 175.416 114.334 175.416 113.95C175.416 113.95 175.034 115.101 175.034 116.636C175.034 117.403 175.034 118.17 175.034 119.321C175.034 120.089 175.416 121.24 175.797 122.007C176.56 123.926 178.085 125.46 179.229 126.611C180.373 127.762 181.517 128.146 181.517 128.146C181.517 128.146 181.517 127.762 181.898 127.379C181.898 126.995 182.28 126.228 182.28 125.46C182.28 124.693 182.28 123.542 182.28 122.391C182.28 121.24 181.899 120.089 181.517 118.938Z" fill="#A6382D" fill-opacity="0.5"/>
<path d="M185.331 108.58C184.95 107.429 184.569 106.662 184.187 105.511C183.425 104.744 183.043 103.976 182.281 103.209C181.518 102.442 180.755 102.058 179.993 102.058C178.467 101.29 177.323 101.291 177.323 101.291C177.323 101.291 176.179 101.291 174.654 101.674C173.891 101.674 173.129 102.058 171.985 102.441C171.222 102.825 170.078 103.209 169.315 103.976C168.553 104.743 167.79 105.127 167.409 105.895C167.027 106.662 166.646 107.429 166.265 107.813C165.883 108.964 165.502 110.115 165.502 110.115C165.502 110.115 166.646 110.115 168.171 110.115C169.697 110.115 171.603 109.731 173.51 108.197C174.273 107.429 175.035 107.046 175.417 106.278C175.798 105.511 176.179 104.743 176.561 103.976C176.942 102.441 177.323 101.291 177.323 101.291C177.323 101.291 177.323 102.441 177.323 103.976C177.323 104.743 177.705 105.511 177.705 106.662C178.086 107.429 178.467 108.58 178.849 109.348C179.993 111.266 181.518 112.417 183.043 113.184C184.569 113.952 185.331 114.335 185.331 114.335C185.331 114.335 185.713 113.184 185.713 111.266C185.713 110.499 185.713 109.731 185.331 108.58Z" fill="#A6382D" fill-opacity="0.5"/>
<path d="M187.619 98.604C187.619 97.453 187.237 95.9183 186.475 94.3836C186.093 93.6162 185.712 92.849 184.949 92.0816C183.424 90.547 181.517 89.7796 179.992 89.3959C178.467 89.0122 177.323 89.0122 177.323 89.0122C177.323 89.0122 176.179 89.0123 174.653 89.7796C173.128 90.1633 171.221 91.3142 170.077 92.8489C169.314 93.6163 168.933 93.9999 168.552 94.7673C167.789 95.9183 167.408 97.0693 167.408 98.2203C167.408 98.604 167.408 98.9877 167.026 99.3714C167.026 99.7551 167.026 99.7551 167.026 99.7551C167.026 99.7551 168.17 99.7551 169.696 99.3714C171.221 98.9877 173.128 98.2203 174.653 96.6856C175.416 95.9183 175.797 95.5346 176.178 94.7673C176.941 93.6163 176.941 92.0816 177.323 91.3143C177.323 90.1632 177.323 89.3959 177.323 89.3959C177.323 89.3959 177.323 90.1632 177.704 91.3143C178.085 92.4653 178.085 93.6163 178.848 95.151C179.229 95.9183 179.611 96.6857 180.373 97.453C181.899 98.9877 183.424 100.139 184.949 100.522C186.475 101.29 187.619 101.29 187.619 101.29V100.906C187.619 99.7551 187.619 98.9877 187.619 98.604Z" fill="#A6382D" fill-opacity="0.5"/>
<path d="M150.247 156.155C150.247 156.155 149.485 155.388 147.959 154.621C146.434 153.853 144.909 153.086 142.621 152.702C141.858 152.702 141.095 152.702 140.333 152.702C138.807 153.086 137.663 153.469 136.901 153.853C136.138 154.237 135.375 154.621 135.375 154.621C135.375 154.621 136.138 155.388 137.282 156.539C138.426 157.69 140.333 158.457 142.239 158.841C143.002 158.841 143.765 158.841 144.527 158.841C146.053 158.457 147.197 158.074 147.959 157.306C149.866 156.923 150.247 156.539 150.247 156.155C150.247 156.155 149.485 156.923 149.103 157.69C148.341 158.457 147.578 159.608 147.197 160.759C146.815 161.527 146.434 162.294 146.434 163.061C146.053 164.98 146.434 167.282 146.815 168.816C147.197 170.351 147.959 171.502 147.959 171.502C147.959 171.502 148.722 171.119 149.485 170.351C150.247 169.584 151.392 168.433 152.154 166.898C152.536 166.131 152.917 165.363 152.917 164.212C153.298 161.91 152.536 159.992 152.154 158.457C151.01 157.306 150.247 156.155 150.247 156.155Z" fill="#A6382D" fill-opacity="0.5"/>
<path d="M159.018 147.33C159.018 147.33 157.874 146.563 156.73 146.179C155.205 145.412 153.298 145.028 151.391 145.028C151.01 145.028 150.247 145.028 149.866 145.412C149.484 145.412 149.103 145.796 148.722 145.796C147.959 146.179 147.196 146.563 146.815 146.947C146.052 147.33 145.671 147.714 145.29 147.714C144.908 148.098 144.908 148.098 144.908 148.098C144.908 148.098 145.671 148.865 147.196 149.632C147.959 150.016 148.722 150.4 149.484 150.783C149.866 150.783 150.247 151.167 151.01 151.167C151.391 151.167 152.154 151.167 152.535 151.167C153.679 151.167 154.442 150.783 155.205 150.4C155.967 150.016 156.73 149.632 157.493 149.249C157.874 148.098 158.637 147.33 159.018 147.33C159.018 147.33 158.255 148.481 157.493 149.632C157.111 150.4 156.73 151.167 156.349 151.934C155.967 152.702 155.967 153.853 155.967 154.62C155.967 155.004 155.967 155.771 155.967 156.155C155.967 156.539 155.967 157.306 156.349 157.69C156.73 158.457 156.73 159.608 157.111 160.375C157.874 161.91 158.637 162.677 158.637 162.677C158.637 162.677 159.018 162.294 159.399 161.91C159.781 161.526 160.162 160.759 160.543 160.375C160.925 159.608 161.306 158.841 161.687 157.69C161.687 157.306 162.069 156.539 162.069 156.155C162.069 155.771 162.069 155.004 162.069 154.62C162.069 152.318 161.306 150.4 160.543 149.249C159.781 148.098 159.018 147.33 159.018 147.33Z" fill="#A6382D" fill-opacity="0.5"/>
<path d="M168.17 138.888C167.026 137.737 166.264 136.97 166.264 136.97C166.264 136.97 165.12 136.586 163.594 136.203C162.069 135.819 160.162 135.435 158.256 135.819C156.349 136.203 154.823 137.354 153.679 138.121C153.298 138.505 152.535 138.888 152.535 139.272C152.154 139.656 152.154 139.656 152.154 139.656C152.154 139.656 153.298 140.423 154.442 140.807C155.967 141.574 157.874 141.958 159.781 141.574C160.925 141.574 161.688 141.19 162.45 140.423C163.213 140.039 163.976 139.272 164.357 138.888C164.738 138.505 165.501 137.737 165.501 137.354C165.882 136.97 165.882 136.586 165.882 136.586C165.882 136.586 165.501 136.97 165.501 137.354C165.12 137.737 165.12 138.505 164.738 139.272C164.357 140.039 164.357 140.807 163.976 141.958C163.976 142.725 163.594 143.876 163.976 145.027C164.357 147.329 165.12 148.864 165.882 150.399C166.645 151.933 167.408 152.701 167.408 152.701C167.408 152.701 167.789 152.317 167.789 151.933C168.17 151.55 168.552 150.782 168.933 150.015C169.696 148.48 170.458 146.178 170.077 144.26C170.077 141.574 168.933 140.039 168.17 138.888Z" fill="#A6382D" fill-opacity="0.5"/>
<path d="M116.69 172.269C115.927 171.118 114.401 169.2 112.876 168.433C112.113 168.049 111.351 167.665 110.588 167.282C109.825 166.898 109.444 166.898 108.681 166.898C107.919 166.898 107.537 166.898 107.156 166.898C106.393 166.898 105.631 166.898 105.631 166.898C105.631 166.898 106.012 168.049 106.393 169.584C107.156 171.118 108.3 172.653 109.825 173.804C110.588 174.188 111.351 174.571 112.113 174.571C114.783 175.339 117.452 174.571 117.834 174.571C117.452 174.571 115.164 175.339 112.876 177.257C112.113 177.641 111.732 178.408 110.969 179.175C109.825 180.71 109.063 183.012 108.681 184.547C108.3 186.081 108.3 187.233 108.3 187.233C108.3 187.233 109.063 187.233 110.207 186.849C110.588 186.849 111.351 186.465 112.113 186.082C112.876 185.698 113.639 185.314 114.02 184.93C114.783 184.547 115.546 183.779 115.927 183.012C117.071 181.094 117.452 179.175 117.452 177.641C117.452 176.106 117.452 174.955 117.452 174.955C117.452 174.955 117.452 173.42 116.69 172.269Z" fill="#A6382D" fill-opacity="0.5"/>
<path d="M129.655 170.352C129.655 170.352 128.892 169.201 128.13 168.05C126.986 166.899 125.46 165.364 123.935 164.597C123.172 164.213 122.028 163.83 121.266 163.83C120.503 163.83 119.74 163.83 118.978 163.83C117.452 163.83 116.69 164.213 116.69 164.213C116.69 164.213 117.071 165.364 117.834 166.515C118.596 167.666 120.122 169.201 122.028 170.352C123.935 171.119 125.842 171.119 127.367 170.736C128.511 170.736 129.655 170.352 129.655 170.352C129.655 170.352 128.511 170.736 127.367 171.887C126.223 172.654 124.698 174.189 123.935 176.107C122.791 178.026 122.791 179.944 122.41 181.479C122.41 183.013 122.791 184.164 122.791 184.164C122.791 184.164 123.935 183.781 125.46 183.013C126.223 182.63 126.986 181.862 127.748 181.095C128.511 180.327 129.274 179.56 129.655 178.409C130.799 176.491 130.799 174.189 130.418 172.654C130.036 171.119 129.655 170.352 129.655 170.352Z" fill="#A6382D" fill-opacity="0.5"/>
<path d="M140.715 163.827C140.715 163.827 139.952 163.06 138.808 161.909C137.664 160.758 135.757 159.607 133.85 159.223C132.706 158.839 131.944 158.839 131.181 158.839C130.418 158.839 129.656 159.223 128.893 159.223C127.368 159.607 126.605 159.99 126.605 159.99C126.605 159.99 127.368 161.141 128.13 162.292C129.274 163.443 130.8 164.594 132.706 165.362C133.469 165.745 134.613 165.745 135.376 165.745C136.138 165.745 137.283 165.362 137.664 165.362C139.571 164.594 140.333 164.211 140.715 163.827C140.715 163.827 139.571 164.594 138.427 165.745C138.045 166.129 137.283 166.896 136.901 167.664C136.52 168.431 135.757 169.199 135.376 170.35C134.613 172.268 134.613 174.57 134.994 176.105C135.376 177.639 135.757 178.79 135.757 178.79C135.757 178.79 136.901 178.407 138.427 177.256C139.189 176.872 139.952 176.105 140.333 175.337C141.096 174.57 141.477 173.419 141.859 172.652C142.621 170.733 142.24 168.431 141.859 166.896C141.096 164.978 140.715 163.827 140.715 163.827Z" fill="#A6382D" fill-opacity="0.5"/>
<path d="M80.8444 174.574C80.4631 173.039 80.0818 171.12 78.9377 169.202C78.5564 168.435 77.7937 168.051 77.4124 167.284C77.0311 166.9 76.2684 166.516 75.8871 166.133C75.5057 165.749 74.743 165.365 74.3617 165.365C73.599 164.982 72.8363 164.598 72.8363 164.598C72.8363 164.598 72.455 165.749 72.455 167.284C72.455 168.818 72.8364 170.737 73.9804 172.655C74.3617 173.423 75.1244 173.806 75.5057 174.574C75.8871 174.957 76.6497 175.341 77.031 175.725C77.4124 176.108 78.1751 176.108 78.5564 176.492C79.7005 176.876 80.0818 176.876 80.4631 176.876C80.4631 176.876 79.7005 176.876 78.5564 176.876C78.1751 176.876 77.4124 176.876 76.6497 176.876C75.8871 176.876 75.1244 176.876 74.743 177.259C73.9804 177.259 73.2177 177.643 72.455 178.027C70.5483 179.178 69.023 180.329 68.2603 181.863C67.4976 183.014 66.7349 184.165 66.7349 184.165C66.7349 184.165 67.4976 184.549 68.6416 184.549C69.4043 184.549 69.7856 184.549 70.5483 184.549C71.311 184.549 72.0737 184.549 72.8363 184.165C73.599 184.165 74.3617 183.782 75.5057 183.398C77.4124 182.247 78.5564 180.712 79.3191 179.178C80.0818 177.643 80.4631 176.492 80.4631 176.492C80.4631 176.492 81.2258 176.108 80.8444 174.574Z" fill="#A6382D" fill-opacity="0.5"/>
<path d="M90.3772 170.735C89.6145 169.967 88.8519 169.584 88.0892 168.816C87.3265 168.433 86.5638 168.049 86.1825 167.665C85.0385 167.282 83.8945 166.898 83.8945 166.898C83.8945 166.898 83.8945 168.049 83.8945 169.584C84.2758 171.118 84.6572 173.037 86.1825 174.571C86.9452 175.339 87.7078 175.722 88.4705 176.49C89.2332 176.873 89.9959 177.257 90.7585 177.641C92.2839 178.024 93.4279 178.024 93.4279 178.024C93.4279 178.024 92.2839 178.024 90.7585 178.408C89.9959 178.408 89.2332 178.792 88.4705 179.175C87.7078 179.559 86.5638 179.943 85.8011 180.71C84.2758 181.861 83.1318 183.779 82.3691 184.93C81.6065 186.465 81.2251 187.616 81.2251 187.616C81.2251 187.616 82.3691 187.616 84.2758 187.616C86.1825 187.616 88.0892 186.849 89.9959 185.698C91.9026 184.163 92.6653 182.628 93.0466 181.094C93.4279 179.559 93.8093 178.408 93.8093 178.408C93.8093 178.408 93.8092 177.257 93.4279 175.722C92.2839 173.804 91.5212 172.269 90.3772 170.735Z" fill="#A6382D" fill-opacity="0.5"/>
<path d="M104.869 174.955C104.106 173.421 103.344 171.886 101.818 170.351C101.056 169.584 100.293 169.2 99.5303 168.817C98.7676 168.433 98.0049 168.433 97.2422 168.049C95.7169 167.666 94.9542 167.666 94.9542 167.666C94.9542 167.666 94.9542 168.817 95.3355 170.351C95.7169 171.886 96.4795 173.804 98.0049 174.955C99.5303 176.106 101.437 176.874 102.962 176.874C104.488 176.874 105.632 176.874 105.632 176.874C105.632 176.874 104.488 176.874 102.962 177.641C101.437 178.025 99.9116 178.792 98.3863 180.327C96.8609 181.862 96.0982 183.78 95.3355 185.315C94.9542 186.849 94.5728 188 94.5728 188C94.5728 188 95.7169 188 97.6236 187.617C98.3863 187.617 99.5303 187.233 100.293 186.466C101.056 186.082 102.2 185.315 102.962 184.547C104.488 183.012 105.25 181.094 105.25 179.559C105.632 178.025 105.632 176.874 105.632 176.874C105.632 176.874 105.632 176.106 104.869 174.955Z" fill="#A6382D" fill-opacity="0.5"/>
<path d="M46.5232 163.062C46.5232 163.062 46.9045 161.911 47.6672 160.376C48.0486 158.841 48.4299 156.923 48.4299 155.004C48.4299 154.237 48.0486 153.47 47.6672 152.702C47.2859 151.551 46.5232 150.4 45.7605 149.633C45.3792 149.249 45.3792 148.866 44.9979 148.866C44.6165 148.866 44.6165 148.482 44.6165 148.482C44.6165 148.482 43.8538 149.249 43.0912 150.784C42.3285 152.319 41.9471 154.237 41.9471 156.155C41.9471 156.923 42.3285 157.69 42.7098 158.457C44.2352 161.527 46.5232 163.062 46.5232 163.062C46.1419 163.062 44.2352 161.527 41.1845 160.76C40.4218 160.76 39.6591 160.376 38.5151 160.376C36.6084 160.376 34.3203 161.143 33.1763 161.91C31.651 162.678 30.8883 163.445 30.8883 163.445C30.8883 163.445 30.8883 163.445 31.2696 163.829C31.651 164.213 32.0323 164.213 32.4137 164.596C33.5577 165.364 34.7017 166.131 36.227 166.515C36.9897 166.898 38.1337 166.898 38.8964 166.898C41.1844 166.898 43.0912 165.747 44.2352 164.98C45.7605 164.213 46.5232 163.062 46.5232 163.062Z" fill="#A6382D" fill-opacity="0.5"/>
<path d="M57.2009 169.584C57.2009 169.584 57.5823 168.433 57.9636 166.898C58.3449 165.364 58.3449 163.445 57.9636 161.527C57.5823 160.376 57.201 159.609 56.8196 158.841C56.4383 158.458 56.4382 158.074 56.0569 157.69C55.6756 157.306 55.6756 156.923 55.2942 156.923C54.5315 155.772 53.3875 155.388 53.3875 155.388C53.3875 155.388 53.0062 156.539 52.2435 158.074C51.8621 159.609 51.4808 161.527 51.8622 163.445C52.2435 164.596 52.6249 165.364 53.0062 166.131C53.3876 166.898 54.1502 167.666 54.5316 168.049C56.0569 168.817 57.2009 169.584 57.2009 169.584C57.2009 169.584 56.0569 168.817 54.5316 168.433C53.7689 168.433 53.0062 168.049 51.8622 168.049C51.0995 168.049 49.9555 168.049 48.8114 168.049C46.9047 168.433 44.998 169.584 43.854 170.351C42.71 171.502 41.9473 172.27 41.9473 172.27C41.9473 172.27 43.0913 173.037 44.6167 173.421C44.998 173.421 45.3794 173.804 45.7607 173.804C46.1421 173.804 46.9048 174.188 47.2861 174.188C48.4301 174.188 49.1928 174.188 50.3368 174.188C52.6248 173.804 54.1502 172.653 55.2942 171.502C56.8196 170.735 57.2009 169.584 57.2009 169.584Z" fill="#A6382D" fill-opacity="0.5"/>
<path d="M69.0224 174.188C69.0224 174.188 69.4037 173.037 69.4037 171.502C69.4037 169.968 69.4038 168.049 68.2598 166.131C67.8784 165.363 67.4971 164.596 66.7344 163.829C66.3531 163.061 65.5904 162.678 65.2091 162.294C64.0651 161.527 63.3024 161.143 63.3024 161.143C63.3024 161.143 62.9211 162.294 62.5397 163.829C62.1584 165.363 62.1584 167.282 62.921 169.2C63.3024 169.968 63.6837 170.735 64.4464 171.502C65.2091 172.27 65.5904 172.653 66.3531 173.037C67.4971 173.804 68.6411 174.188 69.0224 174.188C69.0224 174.188 67.8784 173.804 66.3531 173.804C65.5904 173.804 64.8277 173.804 63.6837 173.804C62.921 173.804 61.777 174.188 61.0143 174.188C59.1077 174.955 57.5823 176.106 56.4383 177.257C55.2943 178.408 54.913 179.559 54.913 179.559C54.913 179.559 56.057 179.943 57.5823 180.327C58.345 180.711 59.489 180.71 60.2517 180.71C61.3957 180.71 62.1584 180.711 63.3024 180.327C65.2091 179.559 66.7344 178.025 67.8784 176.874C68.2598 175.339 69.0224 174.188 69.0224 174.188Z" fill="#A6382D" fill-opacity="0.5"/>
<path d="M19.0672 136.205C20.5925 135.821 21.7365 135.437 21.7365 135.437C21.7365 135.437 22.4992 134.67 23.6432 133.519C24.0246 133.135 24.7873 132.368 25.1686 131.601C25.5499 130.833 26.3126 130.066 26.3126 128.915C26.694 128.147 26.6939 127.38 26.6939 126.613C26.6939 125.078 26.694 123.927 26.3126 123.16C26.3126 122.776 25.9313 122.392 25.9313 122.009C25.9313 121.625 25.9313 121.625 25.9313 121.625C25.9313 121.625 24.7872 122.009 23.6432 123.16C22.8805 123.543 22.4992 124.311 21.7365 125.078C20.9738 125.845 20.5925 126.613 20.2112 127.764C19.8298 128.531 19.8298 129.298 19.8298 130.066C19.8298 131.601 20.2112 132.752 20.5925 133.903C20.9739 135.054 21.3552 135.437 21.3552 135.821C21.3552 135.821 20.9739 135.054 20.2112 134.286C19.4485 133.519 18.6858 132.368 17.5418 131.601C16.7791 131.217 16.0164 130.45 15.2538 130.45C14.1097 130.066 13.347 129.682 12.203 129.682C11.059 129.682 10.2963 129.682 9.53366 129.682C8.0083 129.682 6.86429 130.066 6.86429 130.066C6.86429 130.066 6.86432 130.066 7.24566 130.45C7.24566 130.833 7.62699 131.217 8.00832 131.601C8.771 132.752 9.53367 133.903 10.6777 135.054C11.4404 135.437 12.2031 136.205 12.9658 136.588C14.1098 136.972 14.8724 137.356 16.0164 137.356C17.1604 136.588 18.3045 136.588 19.0672 136.205Z" fill="#A6382D" fill-opacity="0.5"/>
<path d="M25.9307 147.333C27.4561 146.949 28.2188 146.182 28.2188 146.182C28.2188 146.182 28.9815 145.414 30.1255 144.263C30.8882 143.112 32.0321 141.194 32.4135 139.276C32.4135 138.125 32.4135 137.357 32.4135 136.59C32.4135 135.822 32.0322 135.055 32.0322 134.288C31.6508 133.137 31.2695 131.986 31.2695 131.986C31.2695 131.986 30.5068 132.753 29.3628 133.904C28.2187 135.055 27.0747 136.59 26.6934 138.892C26.3121 140.81 26.6934 142.729 27.4561 144.263C27.8374 145.031 28.2188 145.414 28.2188 145.798C28.6001 146.182 28.6001 146.565 28.6001 146.565C28.2188 146.182 25.9307 143.112 21.736 141.961C19.8293 141.578 17.5412 141.578 16.0159 141.961C14.4905 142.345 13.3465 142.729 13.3465 142.729C13.3465 142.729 14.1092 143.88 15.2532 145.031C16.0159 145.798 16.3973 146.182 17.5413 146.949C18.3039 147.333 19.448 148.1 20.592 148.1C22.4987 148.1 24.4054 147.716 25.9307 147.333Z" fill="#A6382D" fill-opacity="0.5"/>
<path d="M34.7015 156.922C36.2269 156.155 36.9895 155.387 36.9895 155.387C36.9895 155.387 37.7522 154.62 38.5149 153.085C38.8963 152.318 39.2776 151.55 39.659 150.783C39.659 150.399 40.0403 150.016 40.0403 149.248C40.0403 148.865 40.0403 148.097 40.0403 147.714C40.0403 146.563 40.0403 145.795 39.659 145.028C39.2776 144.261 39.2776 143.493 38.8962 142.726C38.5149 141.959 38.1336 141.575 38.1336 141.191C37.7522 140.808 37.7523 140.808 37.7523 140.808C37.7523 140.808 36.9896 141.575 35.8456 142.726C35.0829 143.877 33.9389 145.795 33.9389 147.714C33.9389 148.097 33.9389 148.865 33.9389 149.248C33.9389 149.632 34.3202 150.016 34.3202 150.399C34.7015 151.167 35.0828 151.934 35.4642 152.702C36.2269 153.853 36.9896 154.62 37.3709 155.004C37.3709 155.004 36.2268 154.236 35.0828 153.469C34.3201 153.085 33.5575 152.701 32.7948 152.318C32.4135 152.318 32.0321 151.934 31.2694 151.934C30.8881 151.934 30.5068 151.551 29.7441 151.551C27.8374 151.167 25.5493 151.934 24.024 152.318C22.4986 152.701 21.7359 153.469 21.7359 153.469C21.7359 153.469 22.1173 153.853 22.1173 154.236C22.4986 154.62 22.8799 155.004 23.6426 155.771C24.4053 156.155 25.168 156.922 25.9307 157.306C26.6934 157.689 27.8374 158.073 28.9814 158.073C29.3628 158.073 30.1254 158.073 30.5068 158.073C30.8881 158.073 31.6508 158.073 32.0322 157.689C33.1762 157.689 33.9388 157.306 34.7015 156.922Z" fill="#A6382D" fill-opacity="0.5"/>
<path d="M3.4311 96.6847C4.95646 98.2194 6.86311 98.9867 8.38847 99.3704C9.91383 99.7541 11.0579 99.7541 11.0579 99.7541C11.0579 99.7541 12.2019 99.7541 13.7273 98.9867C15.2526 98.6031 17.1593 97.4521 18.3033 95.9174C19.066 95.1501 19.4473 94.7664 19.8287 93.999C20.5913 92.848 20.9727 91.6969 20.9727 90.5459C20.9727 90.1622 20.9727 89.7786 21.3541 89.3949C21.3541 89.0112 21.3541 89.0112 21.3541 89.0112C21.3541 89.0112 20.21 89.0112 18.6847 89.3949C17.1593 89.7786 15.2526 90.546 13.7273 92.0807C12.9646 92.848 12.5832 93.2317 12.2019 93.999C11.4392 95.15 11.4392 96.6847 11.0579 97.4521C11.0579 98.6031 11.0579 99.3704 11.0579 99.3704C11.0579 99.3704 11.0579 98.6031 10.6765 97.4521C10.2952 96.301 10.2952 95.15 9.5325 93.999C9.15116 93.2317 8.76985 92.4643 8.00717 91.697C6.48181 90.1623 4.95646 89.0113 3.4311 88.2439C1.90574 87.4766 0.761676 87.4766 0.761676 87.4766V87.8603C0.761676 88.2439 0.761676 88.6276 0.761676 89.3949C0.761676 90.5459 1.14303 92.0807 1.90571 93.6153C2.28705 95.15 2.66842 95.9173 3.4311 96.6847Z" fill="#A6382D" fill-opacity="0.5"/>
<path d="M4.57606 110.114C6.10142 111.648 8.38949 112.032 9.91485 112.032C11.4402 112.032 12.5842 112.032 12.5842 112.032C12.5842 112.032 13.7283 111.648 14.8723 110.881C16.3976 110.114 17.9229 108.963 19.067 107.428C20.211 105.893 20.5923 103.975 20.9737 102.824C20.9737 102.44 20.9737 102.057 20.9737 102.057C20.9737 101.673 20.9737 101.673 20.9737 101.289C20.9737 100.906 20.9737 100.522 20.9737 100.522C20.9737 100.522 19.8297 100.522 18.3043 101.289C17.5416 101.673 16.7789 102.057 16.0162 102.44C15.2536 102.824 14.4909 103.591 13.7282 104.359C12.9656 105.126 12.5842 105.893 12.5842 107.044C12.2029 107.812 12.2028 108.579 12.2028 109.346C12.2028 110.114 12.2028 110.881 12.2028 111.265C12.2028 111.648 12.2028 112.032 12.2028 112.032C12.2028 112.032 12.2029 111.648 11.8215 111.265C11.8215 110.881 11.4402 110.114 11.0589 109.346C10.6775 108.579 10.2962 107.812 9.91485 107.044C9.53351 106.277 8.77083 105.51 8.00815 104.742C7.24547 103.975 6.4828 103.591 5.33879 103.208C4.57611 102.824 3.43204 102.44 2.66936 102.44C1.14401 102.057 0 102.057 0 102.057C0 102.057 0 102.44 0 102.824C0 103.208 0 103.591 0 103.591C0 103.975 0.381363 104.359 0.381363 104.742C1.90672 106.661 3.0507 108.579 4.57606 110.114Z" fill="#A6382D" fill-opacity="0.5"/>
<path d="M13.3472 124.693C14.8726 124.693 16.0166 124.309 16.0166 124.309C16.0166 124.309 17.1606 123.926 18.3046 122.775C19.4486 121.624 20.974 120.473 21.7367 118.554C22.118 117.787 22.4994 116.636 22.4994 115.869C22.4994 115.101 22.8807 114.334 22.8807 113.567C22.8807 113.183 22.8807 112.799 22.8807 112.799C22.8807 112.416 22.8807 112.416 22.8807 112.032C22.8807 111.648 22.8807 111.265 22.8807 111.265C22.8807 111.265 21.7367 111.648 20.5927 112.416C19.83 112.799 19.0673 113.183 18.3046 113.95C17.5419 114.718 17.1606 115.485 16.3979 116.252C16.0166 117.02 15.6353 118.171 15.6353 118.938C15.6353 119.705 15.6353 120.856 15.6353 121.624C15.6353 123.158 16.0166 124.309 16.3979 124.309C16.3979 124.309 16.0166 123.158 15.2539 121.624C14.8726 120.856 14.4912 120.089 13.7286 119.705C12.9659 118.938 12.5845 118.171 11.4405 117.787C10.6778 117.403 9.53383 116.636 8.77115 116.636C8.00847 116.252 6.86447 116.252 6.10179 116.252C4.57643 116.252 3.43243 116.252 3.43243 116.252C3.43243 116.252 3.43239 116.636 3.81373 117.02C3.81373 117.403 3.81375 117.403 4.19509 117.787C4.19509 118.171 4.5764 118.554 4.5764 118.938C4.95774 119.705 5.33911 120.473 6.10179 121.24C6.86447 122.007 7.62711 122.775 8.38979 123.158C9.91514 124.309 11.8218 124.693 13.3472 124.693Z" fill="#A6382D" fill-opacity="0.5"/>
<path d="M12.5836 59.468C12.965 60.2354 13.7276 61.0027 14.4903 61.3864C15.6343 62.5374 16.7784 62.9211 16.7784 62.9211C16.7784 62.9211 17.9224 63.3048 19.4477 63.3048C20.2104 63.3048 20.9731 63.3048 22.1171 63.3048C22.8798 63.3048 24.0238 62.921 24.7865 62.5374C25.5492 62.1537 26.3118 61.7701 26.6932 61.3864C27.8372 60.619 28.5999 59.8517 29.3625 59.0843C29.7439 58.7006 29.7439 58.3169 30.1253 58.3169C30.1253 57.9333 30.5066 57.9332 30.5066 57.9332C30.5066 57.9332 29.3626 57.5496 27.8372 57.166C27.0745 57.166 26.3119 56.7823 25.1678 56.7823C24.4052 56.7823 23.2611 56.7823 22.1171 57.166C21.3544 57.5496 20.5917 57.9333 19.8291 58.3169C18.685 59.0843 17.9224 60.2353 17.1597 61.0027C16.397 61.77 16.397 62.5374 16.397 62.5374C16.397 62.5374 16.7784 61.77 16.7784 60.619C17.1597 59.468 17.1597 58.317 17.1597 56.7823C17.1597 56.0149 17.1597 55.2475 16.7784 54.0965C16.397 52.9455 16.0157 52.1782 15.6344 51.4109C15.253 50.6435 14.4903 49.8761 14.109 49.1088C12.9649 47.9578 12.2023 47.1904 12.2023 47.1904C12.2023 47.1904 12.2023 47.1905 11.821 47.5741C11.821 47.9578 11.4396 48.3414 11.4396 48.7251C11.0583 49.8761 10.6769 51.4108 10.6769 52.9455C10.6769 53.7129 10.6769 54.8639 11.0583 55.6313C11.821 57.5497 12.2023 58.7007 12.5836 59.468Z" fill="#A6382D" fill-opacity="0.5"/>
<path d="M6.86405 69.4459C7.24539 70.5969 8.00807 71.3643 8.77075 72.1317C9.53343 72.899 10.2961 73.2826 10.6774 73.6663C12.2028 74.4337 12.9655 74.8174 12.9655 74.8174C12.9655 74.8174 14.1095 74.8174 15.6349 74.8174C16.3976 74.8174 17.1602 74.8174 18.3042 74.4337C19.0669 74.05 20.2109 74.05 20.9736 73.2826C21.7363 72.8989 22.499 72.1316 23.2617 71.748C24.0243 70.9806 24.4057 70.5969 24.787 69.8296C25.1683 69.0623 25.5497 68.6786 25.5497 68.2949C25.931 67.9113 25.931 67.5275 25.931 67.5275C25.931 67.5275 24.787 67.144 23.2617 67.144C21.7363 67.144 19.8296 67.1439 17.9229 67.9112C17.1602 68.2949 16.3976 69.0623 15.6349 69.8296C14.8722 70.5969 14.4908 71.3643 14.1095 71.748C13.3468 72.899 12.9655 74.05 12.9655 74.4337C12.9655 74.4337 13.3468 73.2826 13.3468 71.748C13.3468 70.9806 13.3468 70.2133 13.3468 69.0623C13.3468 68.295 12.9655 67.1439 12.5841 66.3766C11.8215 64.4582 10.2961 62.9235 9.15211 61.7725C8.00809 60.6214 6.86405 60.2378 6.86405 60.2378C6.86405 60.2378 6.86403 60.6215 6.48269 61.0052C6.48269 61.3889 6.10138 62.1562 6.10138 62.9235C6.10138 63.6909 6.10138 64.8418 6.10138 65.6092C6.10138 67.5275 6.10137 68.2949 6.86405 69.4459Z" fill="#A6382D" fill-opacity="0.5"/>
<path d="M2.66935 79.8034C3.05069 80.9544 3.43204 81.7217 3.81338 82.8727C4.57606 83.6401 4.9574 84.4074 5.72008 85.1748C6.48276 85.9421 7.24546 86.3259 8.00814 86.3259C9.5335 87.0932 10.6775 87.0931 10.6775 87.0931C10.6775 87.0931 11.8215 87.0931 13.3469 86.7094C14.1096 86.7094 14.8723 86.3258 15.6349 85.9422C16.3976 85.5585 17.5416 85.1749 18.3043 84.4075C19.067 83.6402 19.8297 83.2565 20.211 82.4892C20.5924 81.7218 20.9737 80.9545 21.355 80.5708C21.7364 79.4198 22.1177 78.2687 22.1177 78.2687C22.1177 78.2687 20.9737 78.2687 19.4483 78.2687C17.923 78.2687 16.0163 78.6524 14.1096 80.1871C13.3469 80.9544 12.5842 81.3381 12.2028 82.1055C11.8215 82.8728 11.4402 83.6402 11.0589 84.4075C10.6775 85.9422 10.2961 87.0931 10.2961 87.0931C10.2961 87.0931 10.2961 85.9422 10.2961 84.4075C10.2961 83.6402 9.91484 82.8728 9.91484 81.7218C9.5335 80.9544 9.15215 79.8034 8.77081 79.036C7.62679 77.1177 6.10141 75.9666 4.57605 75.1993C3.05069 74.432 2.28804 74.0483 2.28804 74.0483C2.28804 74.0483 1.90668 75.1993 1.90668 77.1177C2.66936 77.885 2.66935 79.0361 2.66935 79.8034Z" fill="#A6382D" fill-opacity="0.5"/>
<path d="M38.1334 32.2307C38.1334 32.2307 38.8961 32.998 40.4214 33.7653C41.9468 34.5327 43.4721 35.3 45.7602 35.6837C46.5228 35.6837 47.2855 35.6837 48.0482 35.6837C49.5736 35.3 50.7176 34.9164 51.4803 34.5327C52.2429 34.149 53.0057 33.7653 53.0057 33.7653C53.0057 33.7653 52.243 32.998 51.099 31.847C49.9549 30.696 48.0482 29.9286 46.1415 29.5449C45.3788 29.5449 44.6161 29.5449 43.8535 29.5449C42.3281 29.9286 41.1841 30.3122 40.4214 31.0796C38.5147 31.8469 38.1334 32.2307 38.1334 32.2307C38.1334 32.2307 38.8961 31.4633 39.2774 30.696C40.0401 29.9287 40.8028 28.7776 41.1841 27.6266C41.5654 26.8592 41.9468 26.0918 41.9468 25.3245C42.3281 23.4061 41.9468 21.1041 41.5655 19.5694C41.1841 18.0347 40.4214 16.8838 40.4214 16.8838C40.4214 16.8838 39.6587 17.2674 38.896 18.0348C38.1334 18.8021 36.9893 19.9531 36.2267 21.4878C35.8453 22.2551 35.464 23.0225 35.464 24.1735C35.0827 26.4756 35.464 28.3939 36.2267 29.9286C37.3707 31.4633 38.1334 32.2307 38.1334 32.2307Z" fill="#A6382D" fill-opacity="0.5"/>
<path d="M29.3628 41.4352C29.3628 41.4352 30.5068 42.2025 31.6508 42.5862C33.1762 43.3536 35.0829 43.7373 36.9896 43.7373C37.3709 43.7373 38.1336 43.7373 38.5149 43.3536C38.8963 43.3536 39.2776 42.9699 39.659 42.9699C40.4217 42.5862 41.1843 42.2026 41.947 41.8189C42.7097 41.4353 43.091 41.0515 43.4724 41.0515C43.8537 40.6679 43.8537 40.6679 43.8537 40.6679C43.8537 40.6679 43.091 39.9005 41.5657 39.1332C40.803 38.7495 40.0403 38.3659 39.2776 37.9822C38.8963 37.9822 38.515 37.5985 37.7523 37.5985C37.3709 37.5985 36.6082 37.5985 36.2269 37.5985C35.0829 37.5985 34.3202 37.9822 33.5575 38.3659C32.7948 38.7496 32.0321 39.1332 31.2695 39.5169C30.1254 40.2842 29.3628 41.0516 29.3628 41.4352C29.3628 41.4352 30.1255 40.2842 30.8882 39.1332C31.2695 38.3658 31.6508 37.5985 32.0322 36.8311C32.4135 36.0638 32.4135 34.9128 32.4135 34.1455C32.4135 33.7618 32.4135 32.9945 32.4135 32.6108C32.4135 32.2272 32.4135 31.4597 32.0322 31.0761C31.6508 30.3087 31.6508 29.1578 31.2695 28.3904C30.5068 26.8557 29.7441 26.0884 29.7441 26.0884C29.7441 26.0884 29.3628 26.4721 28.9815 26.8558C28.6001 27.2394 28.2188 28.0068 27.8374 28.3904C27.4561 29.1578 27.0747 29.925 26.6934 31.0761C26.6934 31.4597 26.3121 32.2272 26.3121 32.6108C26.3121 32.9945 26.3121 33.7618 26.3121 34.1455C26.3121 36.4475 27.0748 38.3659 27.8374 39.5169C28.6001 40.6679 29.3628 41.4352 29.3628 41.4352Z" fill="#A6382D" fill-opacity="0.5"/>
<path d="M20.2112 49.8793C21.3552 51.0303 22.1179 51.7976 22.1179 51.7976C22.1179 51.7976 23.2619 52.1812 24.7872 52.5649C26.3126 52.9486 28.2193 53.3323 30.126 52.9486C32.0327 52.5649 33.5581 51.4139 34.7021 50.6465C35.0834 50.2629 35.8461 49.8792 35.8461 49.4956C36.2275 49.1119 36.2274 49.1119 36.2274 49.1119C36.2274 49.1119 35.0835 48.3446 33.9394 47.9609C32.4141 47.1935 30.5073 46.8098 28.6006 47.1935C27.4566 47.1935 26.694 47.5771 25.9313 48.3445C25.1686 48.7281 24.4059 49.4956 24.0246 49.8793C23.6432 50.2629 22.8805 51.0303 22.8805 51.4139C22.4992 51.7976 22.4992 52.1812 22.4992 52.1812C22.4992 52.1812 22.8805 51.7976 22.8805 51.4139C23.2619 51.0303 23.2619 50.2629 23.6432 49.4956C24.0246 48.7282 24.0246 47.9608 24.4059 47.1935C24.4059 46.4261 24.7873 45.2752 24.4059 44.1242C24.0246 41.8221 23.2619 40.2873 22.4992 38.7526C21.7366 37.2179 20.9738 36.4507 20.9738 36.4507C20.9738 36.4507 20.5925 36.8343 20.5925 37.218C20.2112 37.6016 19.8299 38.369 19.4485 39.1363C18.6858 40.671 17.9231 42.9731 18.3045 44.8914C18.3045 46.8098 19.0672 48.7282 20.2112 49.8793Z" fill="#A6382D" fill-opacity="0.5"/>
<path d="M71.6922 16.1145C72.4549 17.2655 73.9802 19.1839 75.5056 19.9512C76.2683 20.3349 77.031 20.7186 77.7937 21.1023C78.5564 21.486 78.9377 21.4859 79.7004 21.4859C80.4631 21.4859 80.8444 21.4859 81.2257 21.4859C81.9884 21.4859 82.7511 21.4859 82.7511 21.4859C82.7511 21.4859 82.3697 20.3349 81.9884 18.8002C81.2257 17.2656 80.0817 15.7308 78.5563 14.5798C77.7937 14.1962 77.031 13.8124 76.2683 13.8124C73.5989 13.0451 70.9295 13.8124 70.5482 13.8124C70.9295 13.8124 73.2176 13.0452 75.5056 11.1268C76.2683 10.7432 76.6496 9.97581 77.4123 9.20847C78.5563 7.67379 79.319 5.37179 79.7004 3.83711C80.0817 2.30243 80.0817 1.15137 80.0817 1.15137C80.0817 1.15137 79.319 1.15139 78.175 1.53506C77.7936 1.53506 77.031 1.91866 76.2683 2.30233C75.5056 2.686 74.7429 3.06974 74.3616 3.45341C73.5989 3.83708 72.8362 4.60443 72.4549 5.37177C71.3109 7.29012 70.9295 9.20845 70.9295 10.7431C70.9295 12.2778 70.9295 13.4289 70.9295 13.4289C70.9295 13.4289 70.5482 14.9635 71.6922 16.1145Z" fill="#A6382D" fill-opacity="0.5"/>
<path d="M58.7259 18.4172C58.7259 18.4172 59.4885 19.5682 60.2512 20.7192C61.3952 21.8703 62.9206 23.4049 64.8273 23.7886C65.59 24.1722 66.734 24.556 67.4967 24.556C68.2594 24.556 69.0221 24.556 69.7848 24.556C71.3101 24.556 72.0728 24.1723 72.0728 24.1723C72.0728 24.1723 71.6915 23.0212 70.9288 21.8702C70.1661 20.7192 68.6407 19.1845 66.734 18.0335C64.8273 17.2661 62.9206 17.2661 61.3953 17.6498C59.8699 17.6498 58.7259 18.4172 58.7259 18.4172C58.7259 18.4172 59.8699 18.0335 61.0139 16.8825C62.1579 16.1152 63.6833 14.5805 64.446 12.6621C65.59 10.7438 65.59 8.82542 65.9713 7.29073C65.9713 5.75604 65.59 4.60498 65.59 4.60498C65.59 4.60498 64.446 4.98872 62.9206 5.75607C62.1579 6.13974 61.3953 6.90708 60.6326 7.67443C59.8699 8.44177 59.1072 9.20904 58.7259 10.3601C57.5819 12.2784 57.5818 14.5804 57.9632 16.1151C58.3445 17.2662 58.7259 18.4172 58.7259 18.4172Z" fill="#A6382D" fill-opacity="0.5"/>
<path d="M47.6667 24.5546C47.6667 24.5546 48.4294 25.3219 49.5734 26.4729C50.7174 27.624 52.6242 28.7749 54.5309 29.1586C55.6749 29.5423 56.4376 29.5423 57.2003 29.5423C57.9629 29.5423 58.7256 29.1586 59.4883 29.1586C61.0137 28.7749 61.7763 28.3913 61.7763 28.3913C61.7763 28.3913 61.0137 27.2403 60.251 26.0892C59.107 24.9382 57.5816 23.7872 55.6749 23.0199C54.9122 22.6362 53.7682 22.6362 53.0055 22.6362C52.2428 22.6362 51.0988 23.0199 50.7175 23.0199C48.8108 23.7872 48.0481 24.5546 47.6667 24.5546C47.6667 24.5546 48.8108 23.7872 49.9548 22.6362C50.3361 22.2525 51.0988 21.4852 51.4801 20.7178C51.8615 19.9505 52.6242 19.1831 52.6242 18.0321C53.3868 16.1137 53.3869 13.8117 53.0055 12.277C52.6242 10.7423 52.2428 9.59131 52.2428 9.59131C52.2428 9.59131 51.0988 9.97496 49.5734 11.126C48.8107 11.5097 48.0481 12.277 47.6667 13.0444C46.904 13.8117 46.5227 14.9627 46.1414 15.73C45.3787 17.6484 45.76 19.9504 46.1414 21.4851C47.2854 23.4035 47.6667 24.5546 47.6667 24.5546Z" fill="#A6382D" fill-opacity="0.5"/>
<path d="M107.537 14.1956C107.919 15.7303 108.3 17.6486 109.444 19.5669C109.825 20.3343 110.588 20.7179 110.969 21.4853C111.351 21.8689 112.113 22.2527 112.495 22.6363C112.876 23.02 113.639 23.4036 114.02 23.4036C114.783 23.7873 115.546 24.171 115.546 24.171C115.546 24.171 115.927 23.0199 115.927 21.4853C115.927 19.9506 115.546 18.0323 114.401 16.1139C114.02 15.3466 113.257 14.9629 112.876 14.1956C112.495 13.8119 111.732 13.4283 111.351 13.0446C110.969 12.661 110.207 12.6609 109.825 12.2773C108.681 11.8936 108.3 11.8936 107.919 11.8936C107.919 11.8936 108.681 11.8936 109.825 11.8936C110.207 11.8936 110.969 11.8936 111.732 11.8936C112.495 11.8936 112.876 11.8937 113.639 11.51C114.402 11.1263 115.164 11.1263 115.927 10.7426C117.834 9.59161 119.359 8.44061 120.122 6.90593C120.884 5.75493 121.647 4.60391 121.647 4.60391C121.647 4.60391 120.884 4.22021 119.74 4.22021C118.978 4.22021 118.596 4.22021 117.834 4.22021C117.071 4.22021 116.308 4.22024 115.546 4.60391C114.783 4.60391 114.02 4.98762 112.876 5.37129C110.969 6.52229 109.825 8.05698 109.063 9.59165C108.3 11.1263 107.919 12.2773 107.919 12.2773C107.919 12.2773 107.156 12.6609 107.537 14.1956Z" fill="#A6382D" fill-opacity="0.5"/>
<path d="M98.0044 18.0329C98.767 18.8002 99.5297 19.1839 100.292 19.9512C101.055 20.3349 101.818 20.7187 102.58 21.1023C103.724 21.486 104.868 21.8696 104.868 21.8696C104.868 21.8696 104.868 20.7187 104.868 19.184C104.487 17.6493 104.106 15.7309 102.58 14.1962C101.818 13.4288 101.055 13.0452 100.292 12.2778C99.5297 11.8941 98.767 11.5105 98.0044 11.1268C96.479 10.7432 95.335 10.7431 95.335 10.7431C95.335 10.7431 96.479 10.7431 98.0044 10.3595C98.767 10.3595 99.5297 9.97585 100.292 9.59218C101.055 9.20851 102.199 8.82475 102.962 8.0574C104.487 6.90639 105.631 4.98813 106.394 3.83711C107.157 2.30243 107.538 1.15137 107.538 1.15137C107.538 1.15137 106.394 1.15137 104.487 1.15137C102.58 1.15137 100.674 1.91871 98.7671 3.06972C96.8604 4.60441 96.0977 6.13914 95.7163 7.67383C95.335 9.20851 94.9537 10.3595 94.9537 10.3595C94.9537 10.3595 94.9536 11.5105 95.335 13.0452C95.7163 14.5799 96.479 16.4982 98.0044 18.0329Z" fill="#A6382D" fill-opacity="0.5"/>
<path d="M89.9956 13.0449C88.4703 11.8939 86.5636 11.1265 85.0382 11.1265C83.5129 11.1265 82.3689 11.1265 82.3689 11.1265C82.3689 11.1265 83.5129 11.1265 85.0382 10.3591C86.5636 9.97545 88.0889 9.20817 89.6143 7.67348C91.1396 6.13878 91.9023 4.22034 92.665 2.68565C93.0463 1.15095 93.4277 0 93.4277 0C93.4277 0 92.2836 -9.36687e-05 90.3769 0.38358C89.6143 0.38358 88.4703 0.767324 87.7076 1.53467C86.9449 1.91835 85.8009 2.68569 85.0382 3.45304C83.5129 4.98774 82.7502 6.90606 82.7502 8.44075C82.3688 9.97545 82.3689 11.1265 82.3689 11.1265C82.3689 11.1265 82.7502 12.2775 83.1315 13.8122C83.8942 15.3469 84.6569 16.8816 86.1822 18.4163C86.9449 19.1836 87.7076 19.5673 88.4702 19.951C89.2329 20.3346 89.9956 20.3347 90.7583 20.7184C92.2837 21.102 93.0464 21.1021 93.0464 21.1021C93.0464 21.1021 93.0463 19.951 92.665 18.4163C92.665 16.4979 91.521 14.5796 89.9956 13.0449Z" fill="#A6382D" fill-opacity="0.5"/>
<path d="M141.858 25.3216C141.858 25.3216 141.477 26.4726 140.714 28.0073C140.333 29.542 139.951 31.4603 139.951 33.3787C139.951 34.146 140.333 34.9134 140.714 35.6807C141.095 36.8317 141.858 37.9827 142.621 38.7501C143.002 39.1337 143.002 39.5174 143.383 39.5174C143.765 39.9011 143.765 39.9011 143.765 39.9011C143.765 39.9011 144.527 39.1338 145.29 37.5991C146.053 36.0644 146.434 34.1461 146.434 32.2277C146.434 31.4604 146.053 30.693 145.671 29.9257C144.146 27.24 141.858 25.3216 141.858 25.3216C142.239 25.3216 144.146 26.8563 147.197 27.6236C147.959 27.6236 148.722 28.0073 149.866 28.0073C151.773 28.0073 154.061 27.24 155.205 26.4727C156.73 25.7053 157.493 24.938 157.493 24.938C157.493 24.938 157.493 24.938 157.112 24.5543C156.73 24.1706 156.349 24.1706 155.968 23.7869C154.824 23.0196 153.68 22.2522 152.154 21.8686C151.392 21.4849 150.247 21.4849 149.485 21.4849C147.197 21.4849 145.29 22.6359 144.146 23.4032C142.621 24.5542 141.858 25.3216 141.858 25.3216Z" fill="#A6382D" fill-opacity="0.5"/>
<path d="M131.181 18.8004C131.181 18.8004 130.799 19.9514 130.418 21.4861C130.037 23.0208 130.037 24.9392 130.799 26.8576C131.181 28.0086 131.562 28.7759 131.943 29.5433C132.325 29.9269 132.325 30.3107 132.706 30.6943C133.087 31.078 133.087 31.4616 133.469 31.4616C134.231 32.6126 135.375 32.9963 135.375 32.9963C135.375 32.9963 135.757 31.8453 136.52 30.3106C136.901 28.7759 137.282 26.8576 136.901 24.9392C136.52 23.7882 136.138 23.0208 135.757 22.2535C135.376 21.4861 134.613 20.7188 134.231 20.3351C132.325 19.5677 131.181 19.1841 131.181 18.8004C131.181 18.8004 132.325 19.5677 133.85 19.9514C134.613 19.9514 135.376 20.3351 136.52 20.3351C137.282 20.3351 138.426 20.3351 139.57 20.3351C141.477 19.9514 143.384 18.8004 144.528 18.033C145.672 16.882 146.434 16.1147 146.434 16.1147C146.434 16.1147 145.29 15.3474 143.765 14.9637C143.384 14.9637 143.002 14.58 142.621 14.58C142.24 14.58 141.477 14.1963 141.096 14.1963C139.952 14.1963 139.189 14.1963 138.045 14.1963C135.757 14.58 134.232 15.731 133.087 16.8821C131.562 18.0331 131.181 18.8004 131.181 18.8004Z" fill="#A6382D" fill-opacity="0.5"/>
<path d="M119.36 14.1962C119.36 14.1962 118.978 15.3472 118.978 16.8819C118.978 18.4166 118.978 20.3349 120.122 22.2533C120.504 23.0206 120.885 23.788 121.648 24.5553C122.029 25.3227 122.792 25.7063 123.173 26.09C124.317 26.8573 125.08 27.241 125.08 27.241C125.08 27.241 125.461 26.09 125.842 24.5553C126.224 23.0206 126.224 21.1023 125.461 19.184C125.08 18.4166 124.698 17.6493 123.936 16.8819C123.173 16.1146 122.792 15.7309 122.029 15.3473C120.885 14.5799 119.741 14.1962 119.36 14.1962C119.36 14.1962 120.504 14.5799 122.029 14.5799C122.792 14.5799 123.554 14.5799 124.698 14.5799C125.461 14.5799 126.605 14.1962 127.368 14.1962C129.275 13.4288 130.8 12.2779 131.944 11.1268C133.088 9.97583 133.469 8.82479 133.469 8.82479C133.469 8.82479 132.325 8.44108 130.8 8.05741C130.037 7.67373 128.893 7.67383 128.131 7.67383C126.987 7.67383 126.224 7.67373 125.08 8.05741C123.173 8.82475 121.648 10.3595 120.504 11.5105C119.741 13.0452 119.36 14.1962 119.36 14.1962Z" fill="#A6382D" fill-opacity="0.5"/>
<path d="M169.315 52.1793C167.79 52.563 166.646 52.9467 166.646 52.9467C166.646 52.9467 165.883 53.714 164.739 54.865C164.358 55.2487 163.595 56.0161 163.214 56.7834C162.833 57.5508 162.07 58.3181 162.07 59.4692C161.689 60.2365 161.689 61.0038 161.689 61.7711C161.689 63.3058 161.689 64.4569 162.07 65.2242C162.07 65.6079 162.451 65.9915 162.451 66.3752C162.451 66.7589 162.451 66.7589 162.451 66.7589C162.451 66.7589 163.595 66.3753 164.739 65.2242C165.502 64.8406 165.883 64.0732 166.646 63.3059C167.027 62.5385 167.79 61.7711 168.171 60.6201C168.553 59.8528 168.553 59.0854 168.553 58.3181C168.553 56.7834 168.171 55.6324 167.79 54.4813C167.409 53.3303 167.027 52.9467 167.027 52.563C167.027 52.563 167.409 53.3303 168.171 54.0977C168.934 54.865 169.697 56.0161 170.841 56.7834C171.603 57.1671 172.366 57.9344 173.129 57.9344C174.273 58.318 175.035 58.7018 176.179 58.7018C177.324 58.7018 178.086 58.7018 178.849 58.7018C180.374 58.7018 181.518 58.3181 181.518 58.3181C181.518 58.3181 181.518 58.318 181.137 57.9344C181.137 57.5507 180.756 57.1671 180.374 56.7834C179.612 55.6324 178.849 54.4814 177.705 53.3304C176.942 52.9467 176.179 52.1794 175.417 51.7957C174.273 51.412 173.51 51.0283 172.366 51.0283C171.222 51.7957 170.078 51.7956 169.315 52.1793Z" fill="#A6382D" fill-opacity="0.5"/>
<path d="M162.451 41.4374C160.926 41.8211 160.163 42.5884 160.163 42.5884C160.163 42.5884 159.401 43.3558 158.257 44.5068C157.494 45.6578 156.35 47.5762 155.969 49.4946C155.969 50.6456 155.969 51.4129 155.969 52.1802C155.969 52.9476 156.35 53.715 156.35 54.4823C156.731 55.6333 157.113 56.7844 157.113 56.7844C157.113 56.7844 157.875 56.017 159.019 54.866C160.163 53.715 161.307 52.1803 161.689 49.8783C162.07 47.9599 161.689 46.0415 160.926 44.5068C160.545 43.7394 160.163 43.3558 160.163 42.9721C159.782 42.5884 159.782 42.2048 159.782 42.2048C160.163 42.5885 162.451 45.6578 166.646 46.8088C168.553 47.1925 170.841 47.1925 172.366 46.8088C173.892 46.4252 175.036 46.0416 175.036 46.0416C175.036 46.0416 174.273 44.8905 173.129 43.7395C172.366 42.9722 171.985 42.5885 170.841 41.8211C170.078 41.4375 168.934 40.67 167.79 40.67C165.883 40.2864 163.595 40.6701 162.451 41.4374Z" fill="#A6382D" fill-opacity="0.5"/>
<path d="M153.68 31.8458C152.154 32.6131 151.392 33.3805 151.392 33.3805C151.392 33.3805 150.629 34.1478 149.866 35.6825C149.485 36.4498 149.103 37.2172 148.722 37.9845C148.722 38.3682 148.341 38.7519 148.341 39.5192C148.341 39.9029 148.341 40.6702 148.341 41.0539C148.341 42.2049 148.341 42.9723 148.722 43.7396C149.103 44.507 149.103 45.2743 149.485 46.0417C149.866 46.809 150.248 47.1926 150.248 47.5763C150.629 47.96 150.629 47.96 150.629 47.96C150.629 47.96 151.392 47.1927 152.536 46.0417C153.298 44.8906 154.442 42.9722 154.442 41.0539C154.442 40.6702 154.442 39.9029 154.442 39.5192C154.442 39.1355 154.061 38.7519 154.061 38.3682C153.68 37.6009 153.298 36.8335 152.917 36.0662C152.154 34.9152 151.392 34.1478 151.01 33.7641C151.01 33.7641 152.154 34.5315 153.298 35.2988C154.061 35.6825 154.824 36.0662 155.586 36.4499C155.968 36.4499 156.349 36.8335 157.112 36.8335C157.493 36.8335 157.874 37.2172 158.637 37.2172C160.544 37.6008 162.832 36.8336 164.357 36.4499C165.882 36.0662 166.645 35.2988 166.645 35.2988C166.645 35.2988 166.264 34.9152 166.264 34.5315C165.882 34.1479 165.501 33.7641 164.738 32.9968C163.976 32.6131 163.213 31.8458 162.45 31.4621C161.688 31.0784 160.544 30.6948 159.4 30.6948C159.018 30.6948 158.256 30.6948 157.874 30.6948C157.493 30.6948 156.73 30.6947 156.349 31.0784C155.205 31.0784 154.442 31.4621 153.68 31.8458Z" fill="#A6382D" fill-opacity="0.5"/>
<path d="M183.424 78.2704C181.899 76.7357 179.611 76.3521 178.085 76.3521C176.56 76.3521 175.416 76.3521 175.416 76.3521C175.416 76.3521 174.272 76.7357 173.128 77.503C171.602 78.2704 170.077 79.4213 168.933 80.956C167.789 82.4907 167.408 84.4091 167.026 85.5601C167.026 85.9438 167.026 86.3275 167.026 86.3275C167.026 86.7112 167.026 86.7111 167.026 87.0948C167.026 87.4784 167.026 87.8621 167.026 87.8621C167.026 87.8621 168.17 87.8621 169.696 87.0948C170.458 86.7111 171.221 86.3275 171.984 85.9438C172.746 85.5601 173.509 84.7928 174.272 84.0254C175.034 83.2581 175.416 82.4907 175.416 81.3397C175.797 80.5724 175.797 79.805 175.797 79.0377C175.797 78.2703 175.797 77.503 175.797 77.1193C175.797 76.7356 175.797 76.3521 175.797 76.3521C175.797 76.3521 175.797 76.7356 176.178 77.1193C176.178 77.503 176.56 78.2703 176.941 79.0377C177.323 79.805 177.704 80.5724 178.085 81.3397C178.467 82.107 179.229 82.8744 179.992 83.6418C180.755 84.4091 181.517 84.7927 182.661 85.1764C183.424 85.5601 184.568 85.9438 185.331 85.9438C186.856 86.3275 188 86.3275 188 86.3275C188 86.3275 188 85.9438 188 85.5601C188 85.1764 188 84.7927 188 84.7927C188 84.409 187.619 84.0254 187.619 83.6418C186.093 81.7234 185.331 79.8051 183.424 78.2704Z" fill="#A6382D" fill-opacity="0.5"/>
<path d="M174.653 63.687C173.128 63.687 171.984 64.0707 171.984 64.0707C171.984 64.0707 170.84 64.4544 169.696 65.6054C168.552 66.3727 167.026 67.9074 166.264 69.8258C165.882 70.5931 165.501 71.7442 165.501 72.5115C165.501 73.2789 165.12 74.0463 165.12 74.8136C165.12 75.1973 165.12 75.5809 165.12 75.5809C165.12 75.9645 165.12 75.9646 165.12 76.3483C165.12 76.7319 165.12 77.1155 165.12 77.1155C165.12 77.1155 166.264 76.7319 167.408 75.9646C168.171 75.5809 168.933 75.1973 169.696 74.4299C170.459 73.6626 170.84 72.8952 171.603 72.1278C171.984 71.3605 172.365 70.2094 172.365 69.4421C172.365 68.6748 172.365 67.5238 172.365 66.7565C172.365 65.2218 171.984 64.0707 171.603 64.0707C171.603 64.0707 171.984 65.2218 172.747 66.7565C173.128 67.5238 173.509 68.2911 174.272 68.6748C175.035 69.4422 175.416 70.2095 176.56 70.5932C177.323 70.9769 178.467 71.7442 179.229 71.7442C179.992 72.1278 181.136 72.1278 181.899 72.1278C183.424 72.1278 184.568 72.1278 184.568 72.1278C184.568 72.1278 184.568 71.7441 184.187 71.3605C184.187 70.9768 184.187 70.9769 183.805 70.5932C183.805 70.2095 183.424 69.8258 183.424 69.4421C183.043 68.6748 182.661 67.9075 181.899 67.1402C181.136 66.3728 180.373 65.6055 179.611 65.2218C178.467 64.0708 176.56 63.687 174.653 63.687Z" fill="#A6382D" fill-opacity="0.5"/>
</svg>
